<svg width="1440" height="900" viewBox="0 0 1440 900" fill="none" xmlns="http://www.w3.org/2000/svg">
<g clip-path="url(#clip0_144931_184071)">
<rect width="1440" height="900" fill="#F7FBFF"/>
<g clip-path="url(#clip1_144931_184071)">
<g opacity="0.8">
<path opacity="0.25" d="M71.6897 714.905C84.3328 713.352 93.325 701.849 91.7743 689.213C90.2236 676.577 78.7173 667.592 66.0742 669.145C53.4311 670.698 44.439 682.201 45.9897 694.838C47.5403 707.474 59.0467 716.459 71.6897 714.905Z" fill="#CFDAE6"/>
<path opacity="0.6" d="M6.63632 685.384C9.66454 685.012 11.8183 682.257 11.4469 679.23C11.0755 676.204 8.31953 674.052 5.29131 674.424C2.26309 674.796 0.109318 677.551 0.480733 680.578C0.852147 683.604 3.6081 685.756 6.63632 685.384Z" fill="#CFDAE6"/>
<path opacity="0.45" fill-rule="evenodd" clip-rule="evenodd" d="M49.3585 754.054C55.4149 753.31 59.7224 747.8 58.9796 741.747C58.2368 735.694 52.7249 731.39 46.6684 732.134C40.612 732.878 36.3045 738.388 37.0473 744.441C37.7901 750.494 43.302 754.798 49.3585 754.054Z" fill="#CFDAE6"/>
<path opacity="0.8" d="M69.7104 692.673L125.272 668.13" stroke="#CFDAE6" stroke-width="1.73913" stroke-linecap="round" stroke-linejoin="round"/>
<path opacity="0.7" d="M45.5895 688.517L7.86597 680.415" stroke="#E0B4B7" stroke-width="0.702679" stroke-linecap="round" stroke-linejoin="round" stroke-dasharray="1.41 2.11"/>
<path opacity="0.8" d="M69.3882 693.087L52.721 733.339" stroke="#BACAD9" stroke-width="0.702679" stroke-linecap="round" stroke-linejoin="round" stroke-dasharray="1.41 2.11"/>
<g opacity="0.8">
<path opacity="0.45" d="M128.755 672.651C133.672 674.739 139.349 672.448 141.434 667.533C143.519 662.619 141.224 656.942 136.307 654.854C131.389 652.766 125.713 655.058 123.628 659.972C121.542 664.887 123.838 670.563 128.755 672.651Z" fill="#CFDAE6"/>
<path opacity="0.8" fill-rule="evenodd" clip-rule="evenodd" d="M123.627 659.973C121.542 664.887 123.838 670.563 128.755 672.651C133.672 674.739 139.348 672.448 141.434 667.534L123.627 659.973Z" fill="#CFDAE6"/>
</g>
</g>
<path opacity="0.25" d="M138.791 207.089C155.753 205.604 168.3 190.635 166.815 173.655C165.331 156.676 150.376 144.114 133.414 145.599C116.452 147.084 103.905 162.053 105.39 179.032C106.875 196.012 121.829 208.573 138.791 207.089Z" fill="#CFDAE6"/>
<path opacity="0.3" d="M138.094 199.118C150.658 198.018 159.952 186.93 158.853 174.353C157.753 161.775 146.676 152.47 134.111 153.57C121.547 154.67 112.253 165.758 113.353 178.336C114.452 190.913 125.529 200.218 138.094 199.118Z" fill="#CFDAE6"/>
<path opacity="0.4" d="M306.461 302.568C320.282 301.359 330.506 289.162 329.296 275.327C328.086 261.491 315.901 251.256 302.08 252.466C288.259 253.676 278.036 265.873 279.246 279.708C280.455 293.543 292.64 303.778 306.461 302.568Z" stroke="#CFDAE6"/>
<path opacity="0.5" d="M137.098 187.731C143.381 187.181 148.028 181.637 147.478 175.348C146.928 169.059 141.389 164.407 135.107 164.957C128.825 165.507 124.178 171.051 124.728 177.34C125.277 183.629 130.816 188.281 137.098 187.731Z" fill="#BACAD9"/>
<path fill-rule="evenodd" clip-rule="evenodd" d="M137.099 187.731L135.107 164.957C128.825 165.507 124.178 171.051 124.728 177.34C125.278 183.629 130.816 188.281 137.099 187.731Z" fill="#BACAD9"/>
<g opacity="0.45">
<path opacity="0.45" d="M304.868 284.35C308.638 284.02 311.426 280.693 311.096 276.92C310.766 273.147 307.443 270.356 303.674 270.686C299.904 271.016 297.116 274.342 297.446 278.115C297.776 281.888 301.099 284.68 304.868 284.35Z" fill="#E6A1A6"/>
<path opacity="0.45" fill-rule="evenodd" clip-rule="evenodd" d="M304.869 284.35C301.099 284.68 297.776 281.888 297.446 278.115C297.116 274.342 299.904 271.015 303.674 270.685L304.869 284.35Z" fill="#E6A1A6"/>
</g>
<path d="M345.988 276.161C346.93 276.079 347.627 275.247 347.545 274.304C347.462 273.361 346.631 272.663 345.689 272.745C344.747 272.828 344.05 273.659 344.132 274.603C344.215 275.546 345.046 276.244 345.988 276.161Z" fill="#CFDAE6"/>
<path opacity="0.35" d="M308.425 318.461C309.367 318.379 310.064 317.547 309.982 316.604C309.899 315.661 309.069 314.963 308.126 315.045C307.184 315.128 306.487 315.959 306.569 316.903C306.652 317.846 307.483 318.544 308.425 318.461Z" fill="#E0B4B7"/>
<path opacity="0.35" d="M302.321 242.118C303.577 242.008 304.507 240.899 304.397 239.641C304.287 238.383 303.179 237.453 301.923 237.563C300.666 237.673 299.737 238.782 299.847 240.039C299.957 241.297 301.064 242.228 302.321 242.118Z" fill="#E0B4B7"/>
<path opacity="0.8" d="M136.053 177.231L295.485 272.679" stroke="#CFDAE6"/>
<g opacity="0.8">
<path opacity="0.8" d="M1133.18 147.739C1139.6 146.49 1143.79 140.221 1142.53 133.736C1141.27 127.252 1135.04 123.007 1128.62 124.256C1122.2 125.505 1118.01 131.774 1119.27 138.259C1120.53 144.743 1126.76 148.988 1133.18 147.739Z" stroke="#CFDAE6" stroke-width="0.941176"/>
<g opacity="0.8">
<path opacity="0.45" d="M1132.59 144.899C1137.46 143.952 1140.63 139.203 1139.67 134.291C1138.72 129.378 1134 126.163 1129.14 127.109C1124.27 128.055 1121.1 132.805 1122.06 137.717C1123.01 142.63 1127.73 145.845 1132.59 144.899Z" fill="#BACAD9"/>
<path opacity="0.8" fill-rule="evenodd" clip-rule="evenodd" d="M1132.59 144.899C1137.46 143.953 1140.63 139.203 1139.67 134.291C1138.72 129.378 1134 126.163 1129.14 127.109L1132.59 144.899Z" fill="#BACAD9"/>
</g>
<path opacity="0.8" d="M1119.93 130.371L1085.8 115.387" stroke="#CFDAE6" stroke-width="0.941176"/>
<path opacity="0.8" d="M1083.62 117.773C1085.49 117.409 1086.71 115.58 1086.34 113.689C1085.98 111.797 1084.16 110.559 1082.29 110.924C1080.42 111.288 1079.19 113.116 1079.56 115.008C1079.93 116.899 1081.75 118.137 1083.62 117.773Z" stroke="#CFDAE6" stroke-width="0.941176"/>
<path opacity="0.8" d="M1094.73 177.555C1096.34 177.243 1097.38 175.676 1097.07 174.055C1096.75 172.434 1095.2 171.372 1093.59 171.685C1091.99 171.997 1090.94 173.564 1091.26 175.185C1091.57 176.807 1093.13 177.868 1094.73 177.555Z" fill="#F7E1AD"/>
<path opacity="0.8" d="M1122.83 145.435L1096.24 172.715" stroke="#CFDAE6" stroke-width="0.941176"/>
</g>
<g opacity="0.33">
<g opacity="0.33">
<path opacity="0.45" d="M1366.52 557.304C1365.92 550.506 1359.93 545.478 1353.14 546.073C1346.34 546.668 1341.31 552.661 1341.91 559.459C1342.5 566.257 1348.49 571.285 1355.29 570.69C1362.08 570.095 1367.11 564.101 1366.52 557.304Z" fill="#BACAD9"/>
<path opacity="0.33" fill-rule="evenodd" clip-rule="evenodd" d="M1355.29 570.691C1362.08 570.095 1367.11 564.102 1366.52 557.304C1365.92 550.506 1359.93 545.478 1353.14 546.073L1355.29 570.691Z" fill="#BACAD9"/>
</g>
<path opacity="0.33" d="M1415.56 535.222C1418.92 534.629 1421.16 531.425 1420.57 528.065C1419.98 524.705 1416.78 522.461 1413.42 523.054C1410.06 523.647 1407.81 526.851 1408.41 530.211C1409 533.571 1412.2 535.815 1415.56 535.222Z" fill="#CFDAE6"/>
<path opacity="0.33" d="M1353.9 541.235L1352.88 464.835" stroke="#BACAD9" stroke-width="1.16667"/>
<path opacity="0.33" d="M1213.06 510.719L1338.81 553.392" stroke="#BACAD9" stroke-width="1.16667"/>
<path opacity="0.33" d="M1360.12 574.007L1412.93 684.348L1255.21 621.774L1340.09 567.357" stroke="#CFDAE6" stroke-width="1.16667"/>
<path opacity="0.6" d="M1372.95 549.634L1408.12 532.143" stroke="#E0B4B7" stroke-width="1.16667"/>
<path opacity="0.33" d="M1417.15 522.901L1443.51 468.812" stroke="#BACAD9" stroke-width="1.16667"/>
<path opacity="0.33" d="M1490.37 563.858L1420.5 531.217" stroke="#CFDAE6" stroke-width="1.16667"/>
<path opacity="0.33" d="M1354.78 464.387C1359.82 463.498 1363.19 458.691 1362.3 453.651C1361.41 448.611 1356.61 445.246 1351.57 446.134C1346.53 447.023 1343.16 451.83 1344.05 456.87C1344.94 461.91 1349.75 465.276 1354.78 464.387Z" fill="#C1D1E0"/>
<path opacity="0.33" d="M1257.02 628.43C1260.04 627.897 1262.06 625.013 1261.53 621.989C1260.99 618.965 1258.11 616.946 1255.09 617.479C1252.06 618.013 1250.04 620.897 1250.58 623.921C1251.11 626.945 1253.99 628.964 1257.02 628.43Z" fill="#C1D1E0"/>
<path opacity="0.33" d="M1204.8 517.191C1209.84 516.302 1213.2 511.495 1212.31 506.455C1211.42 501.415 1206.62 498.049 1201.58 498.938C1196.54 499.827 1193.18 504.634 1194.06 509.674C1194.95 514.714 1199.76 518.08 1204.8 517.191Z" fill="#D1DEED" fill-opacity="0.6"/>
<path opacity="0.33" d="M1414.79 690.94C1417.81 690.407 1419.83 687.523 1419.3 684.499C1418.76 681.475 1415.88 679.456 1412.86 679.989C1409.83 680.522 1407.82 683.406 1408.35 686.43C1408.88 689.455 1411.76 691.474 1414.79 690.94Z" fill="#E0B4B7"/>
</g>
</g>
</g>
<defs>
<clipPath id="clip0_144931_184071">
<rect width="1440" height="900" fill="white"/>
</clipPath>
<clipPath id="clip1_144931_184071">
<rect width="1441" height="645" fill="white" transform="translate(0 110)"/>
</clipPath>
</defs>
</svg>
